<svg width="52" height="57" viewBox="0 0 52 57" fill="none" xmlns="http://www.w3.org/2000/svg">
<path d="M23.0934 0.633479C22.8931 0.432675 22.6552 0.273359 22.3932 0.164656C22.1313 0.055953 21.8504 0 21.5668 0C21.2832 0 21.0024 0.055953 20.7404 0.164656C20.4784 0.273359 20.2405 0.432675 20.0402 0.633479C14.6797 5.98529 8.75437 8.62454 2.15625 8.62454C1.58438 8.62454 1.03593 8.85172 0.631551 9.25609C0.227176 9.66047 0 10.2089 0 10.7808V23.7226C0 36.328 5.83913 45.2679 17.25 50.2488V34.4995C17.2495 32.587 17.8847 30.7286 19.0557 29.2165C20.2266 27.7044 21.867 26.6244 23.7188 26.1462V25.8745C23.7181 23.6032 24.3153 21.3717 25.4506 19.4044C26.5858 17.4371 28.2189 15.8033 30.1858 14.6673C32.1526 13.5314 34.3839 12.9332 36.6553 12.9331C38.9266 12.9329 41.158 13.5307 43.125 14.6664V10.7808C43.125 10.2089 42.8978 9.66047 42.4935 9.25609C42.0891 8.85172 41.5406 8.62454 40.9688 8.62454C34.3663 8.62454 28.4409 5.99392 23.0934 0.633479ZM28.0312 30.187V25.8745C28.0312 23.587 28.94 21.3932 30.5575 19.7757C32.175 18.1582 34.3688 17.2495 36.6562 17.2495C38.9437 17.2495 41.1375 18.1582 42.755 19.7757C44.3725 21.3932 45.2812 23.587 45.2812 25.8745V30.187H47.4375C48.5812 30.187 49.6781 30.6414 50.4869 31.4501C51.2956 32.2589 51.75 33.3558 51.75 34.4995V51.7495C51.75 52.8933 51.2956 53.9902 50.4869 54.7989C49.6781 55.6077 48.5812 56.062 47.4375 56.062H25.875C24.7313 56.062 23.6344 55.6077 22.8256 54.7989C22.0169 53.9902 21.5625 52.8933 21.5625 51.7495V34.4995C21.5625 33.3558 22.0169 32.2589 22.8256 31.4501C23.6344 30.6414 24.7313 30.187 25.875 30.187H28.0312ZM32.3438 25.8745V30.187H40.9688V25.8745C40.9688 24.7308 40.5144 23.6339 39.7056 22.8251C38.8969 22.0164 37.8 21.562 36.6562 21.562C35.5125 21.562 34.4156 22.0164 33.6069 22.8251C32.7981 23.6339 32.3438 24.7308 32.3438 25.8745ZM39.8906 43.1245C39.8906 42.2667 39.5499 41.4441 38.9433 40.8375C38.3367 40.2309 37.5141 39.8902 36.6562 39.8902C35.7984 39.8902 34.9758 40.2309 34.3692 40.8375C33.7626 41.4441 33.4219 42.2667 33.4219 43.1245C33.4219 43.9823 33.7626 44.805 34.3692 45.4116C34.9758 46.0182 35.7984 46.3589 36.6562 46.3589C37.5141 46.3589 38.3367 46.0182 38.9433 45.4116C39.5499 44.805 39.8906 43.9823 39.8906 43.1245Z" fill="url(#paint0_linear_227_289)"/>
<defs>
<linearGradient id="paint0_linear_227_289" x1="51.75" y1="28.031" x2="0" y2="28.031" gradientUnits="userSpaceOnUse">
<stop stop-color="#3B82F6"/>
<stop offset="1" stop-color="#00FFA3"/>
</linearGradient>
</defs>
</svg>
